# AST/ASF file generated using VICON BodyLanguage
# -----------------------------------------------
:version 1.10
:name VICON
:units
  mass 1.0
  length 0.45
  angle deg
:documentation
   .ast/.asf automatically generated from VICON data using
   VICON BodyBuilder and BodyLanguage model FoxedUp or BRILLIANT.MOD
:root
   order TX TY TZ RX RY RZ
   axis XYZ
   position 0 0 0  
   orientation 0 0 0 
:bonedata
  begin
     id 1 
     name lhipjoint
     direction 0.621036 -0.695554 0.361275 
     length 2.46325 
     axis 0 0 0  XYZ
  end
  begin
     id 2 
     name lfemur
     direction 0.34202 -0.939693 0  
     length 6.54784  
     axis 0 0 20  XYZ
    dof rx ry rz
    limits (-160.0 20.0)
           (-70.0 70.0)
           (-60.0 70.0)
  end
  begin
     id 3 
     name ltibia
     direction 0.34202 -0.939693 0   
     length 7.84737   
     axis 0 0 20   XYZ
    dof rx
    limits (-10.0 170.0)
  end
  begin
     id 4 
     name lfoot
     direction 0.0790693 -0.217241 0.97291   
     length 2.59747   
     axis -90 7.62852e-016 20   XYZ
    dof rx rz
    limits (-45.0 90.0)
           (-70.0 20.0)
  end
  begin
     id 5 
     name ltoes
     direction 1.53572e-011 -4.21898e-011 1   
     length 1.29919   
     axis -90 7.62852e-016 20   XYZ
    dof rx
    limits (-90.0 20.0)
  end
  begin
     id 6 
     name rhipjoint
     direction -0.602353 -0.708375 0.367935   
     length 2.41867  
     axis 0 0 0  XYZ 
  end
  begin
     id 7 
     name rfemur
     direction -0.34202 -0.939693 0   
     length 6.92065   
     axis 0 0 -20   XYZ
    dof rx ry rz
    limits (-160.0 20.0)
           (-70.0 70.0)
           (-70.0 60.0)
  end
  begin
     id 8 
     name rtibia
     direction -0.34202 -0.939693 0   
     length 7.88883   
     axis 0 0 -20   XYZ
    dof rx
    limits (-10.0 170.0)
 end
 begin
     id 9 
     name rfoot
     direction -0.0768692 -0.211196 0.974416   
     length 2.43714  
     axis -90 -7.62852e-016 -20   XYZ
    dof rx rz
    limits (-45.0 90.0)
           (-20.0 70.0)
  end
  begin
     id 10 
     name rtoes
     direction -1.53575e-011 -4.21933e-011 1   
     length 1.22113   
     axis -90 -7.62852e-016 -20   XYZ
    dof rx
    limits (-90.0 20.0)
  end
  begin
     id 11 
     name lowerback
     direction 0.0197937 0.98943 -0.143655   
     length 2.16931   
     axis 0 0 0   XYZ
    dof rx ry rz
    limits (-20.0 45.0)
           (-30.0 30.0)
           (-30.0 30.0)
  end
  begin
     id 12 
     name upperback
     direction -0.00183968 0.999975 0.00684288   
     length 2.17221   
     axis 0 0 0   XYZ
    dof rx ry rz
    limits (-20.0 45.0)
           (-30.0 30.0)
           (-30.0 30.0)
  end
  begin
     id 13 
     name thorax
     direction -0.00950244 0.997208 0.0740685   
     length 2.22549   
     axis 0 0 0   XYZ
    dof rx ry rz
    limits (-20.0 45.0)
           (-30.0 30.0)
           (-30.0 30.0)
  end
  begin
     id 14 
     name lowerneck
     direction 0.0218238 0.996215 0.0841425   
     length 1.77269   
     axis 0 0 0   XYZ
    dof rx ry rz
    limits (-20.0 45.0)
           (-30.0 30.0)
           (-30.0 30.0)
  end
  begin
     id 15 
     name upperneck
     direction -0.00430652 0.994214 -0.107332   
     length 1.76534   
     axis 0 0 0   XYZ
    dof rx ry rz
    limits (-20.0 45.0)
           (-30.0 30.0)
           (-30.0 30.0)
  end
  begin
     id 16
     name head
     direction -0.00328946 0.998959 -0.0454998  
     length 1.82634  
     axis 0 0 0   XYZ
    dof rx ry rz
    limits (-20.0 45.0)
           (-30.0 30.0)
           (-30.0 30.0)
  end
  begin
     id 17 
     name lclavicle
     direction 0.970962 0.239191 0.00450212  
     length 3.84872  
     axis 0 0 0   XYZ
    dof ry rz
    limits (-20.0 10.0)
           (0.0 20.0)
  end
  begin
     id 18 
     name lhumerus
     direction 1 -4.48966e-011 5.74696e-028   
     length 5.22771   
     axis 180 -30 -90   XYZ
    dof rx ry rz
    limits (-60.0 90.0)
           (-90.0 90.0)
           (-90.0 90.0)
  end
  begin
     id 19
     name lradius
     direction 1 -4.4896e-011 4.25109e-027   
     length 3.45251   
     axis 180 -30 -90   XYZ
    dof rx
    limits (-10.0 170.0)
  end
  begin
     id 20
     name lwrist
     direction 1 -4.48971e-011 1.15382e-027   
     length 1.72626   
     axis -5.52449e-016 90 90   XYZ
    dof ry
    limits (-180.0 0.0)
 end
  begin
     id 21 
     name lhand
     direction 1 -4.49034e-011 2.30765e-027   
     length 0.552119   
     axis -1.47248e-015 90 90   XYZ
    dof rx rz
    limits (-90.0 90.0)
           (-45.0 45.0)
  end
  begin
     id 22 
     name lfingers
     direction 1 -4.48951e-011 4.61529e-027   
     length 0.445133   
     axis -2.94495e-015 90 90   XYZ
    dof rx
    limits (0.0 90.0)
  end
  begin
     id 23
     name lthumb
     direction 0.707107 -6.34991e-011 0.707107   
     length 0.639124   
     axis -90 45 2.85299e-015   XYZ
    dof rx rz
    limits (-45.0 45.0)
           (-45.0 45.0)
  end
  begin
     id 24 
     name rclavicle
     direction -0.97424 0.222511 -0.0366699   
     length 3.73439  
     axis 0 0 0   XYZ 
    dof ry rz
    limits (-10.0 20.0)
           (-20.0 0.0)
  end
  begin
     id 25 
     name rhumerus
     direction -1 -4.48956e-011 -4.97258e-028  
     length 5.2398   
     axis 180 30 90   XYZ
    dof rx ry rz
    limits (-90.0 60.0)
           (-90.0 90.0)
           (-90.0 90.0)
  end
  begin
     id 26 
     name rradius
     direction -1 -4.4897e-011 -1.72611e-027   
     length 3.48042   
     axis 180 30 90   XYZ
    dof rx
    limits (-10.0 170.0)
  end
  begin
     id 27 
     name rwrist
     direction -1 -4.48976e-011 1.15382e-027   
     length 1.74021   
     axis -5.52449e-016 -90 -90   XYZ
    dof ry
    limits (-180.0 0.0)
  end
  begin
     id 28
     name rhand
     direction -1 -4.48963e-011 2.30765e-027   
     length 0.618713   
     axis -1.47248e-015 -90 -90   XYZ
    dof rx rz
    limits (-90.0 90.0)
           (-45.0 45.0)
  end
  begin
     id 29
     name rfingers
     direction -1 -4.4888e-011 4.61529e-027   
     length 0.498823   
     axis -2.94495e-015 -90 -90   XYZ
    dof rx
    limits (0.0 90.0)
  end
  begin
     id 30
     name rthumb
     direction -0.707107 -6.34968e-011 0.707107   
     length 0.716213   
     axis -90 -45 -2.85299e-015   XYZ
    dof rx rz
    limits (-45.0 45.0)
           (-45.0 45.0)
  end
:hierarchy
  begin
    root lhipjoint rhipjoint lowerback
    lhipjoint lfemur
    lfemur ltibia
    ltibia lfoot
    lfoot ltoes
    rhipjoint rfemur
    rfemur rtibia
    rtibia rfoot
    rfoot rtoes
    lowerback upperback
    upperback thorax
    thorax lowerneck lclavicle rclavicle
    lowerneck upperneck
    upperneck head
    lclavicle lhumerus
    lhumerus lradius
    lradius lwrist
    lwrist lhand lthumb
    lhand lfingers
    rclavicle rhumerus
    rhumerus rradius
    rradius rwrist
    rwrist rhand rthumb
    rhand rfingers
  end

#!OML:ASF G:\JayActor3\Patient Classification 1\Patient 1\Session 5\male.ASF
:FULLY-SPECIFIED
:DEGREES
31
root 5.47813 16.9308 -6.29006 136.903 -88.0921 219.91
lowerback 0.900659 -0.71108 1.88847
upperback 2.99443 -0.999914 0.0232621
thorax 2.53616 -0.471574 -1.04756
lowerneck -2.44279 -0.922649 2.29313
upperneck -6.13667 -1.28461 1.65456
head -1.48689 -0.76031 0.139248
rclavicle -1.24862e-015 -8.94531e-016
rhumerus -24.6039 -5.44038 -77.7098
rradius 29.5583
rwrist 9.94943
rhand -11.1836 -5.67677
rfingers 7.12502
rthumb 14.8436 -35.1251
lclavicle -1.24862e-015 -8.94531e-016
lhumerus -20.5634 5.38068 77.6477
lradius 26.6557
lwrist 8.98068
lhand -8.47449 17.4169
lfingers 7.12502
lthumb 17.4522 46.6534
rfemur -4.59311 6.30485 14.7226
rtibia 28.48
rfoot -23.2214 -16.7369
rtoes 4.43033
lfemur 4.20709 4.83235 -14.6676
ltibia 12.0153
lfoot -14.3305 20.0717
ltoes 0.064868
32
root 5.47093 16.9323 -6.29743 136.525 -88.0566 220.304
lowerback 0.904414 -0.71418 1.89721
upperback 2.99141 -1.00414 0.0309453
thorax 2.5308 -0.473647 -1.04454
lowerneck -2.48107 -0.92849 2.27395
upperneck -6.19062 -1.29263 1.69521
head -1.49709 -0.76599 0.15508
rclavicle 9.36152e-015 -7.15625e-015
rhumerus -24.5911 -6.15305 -78.0658
rradius 28.7224
rwrist 10.6776
rhand -10.9722 -5.53908
rfingers 7.12502
rthumb 15.0473 -34.9722
lclavicle 9.36152e-015 -7.15625e-015
lhumerus -20.6384 5.7372 77.9982
lradius 25.7774
lwrist 8.40648
lhand -8.11909 17.4999
lfingers 7.12502
lthumb 17.7943 46.7057
rfemur -4.56631 6.2388 14.7706
rtibia 28.4358
rfoot -23.1528 -16.6931
rtoes 4.46098
lfemur 4.27241 4.76275 -14.6179
ltibia 11.9248
lfoot -14.3413 20.1628
ltoes 0.0693647
33
root 5.4637 16.9337 -6.30471 136.266 -88.0161 220.58
lowerback 0.908163 -0.715958 1.90781
upperback 2.98885 -1.00664 0.0393577
thorax 2.52597 -0.474828 -1.04179
lowerneck -2.51794 -0.933285 2.25543
upperneck -6.24416 -1.2992 1.7356
head -1.50741 -0.770953 0.170727
rclavicle -9.90196e-015 -2.18663e-015
rhumerus -24.5866 -6.89387 -78.393
rradius 27.9152
rwrist 11.4003
rhand -10.7969 -5.40697
rfingers 7.12502
rthumb 15.2161 -34.8274
lclavicle -9.90196e-015 -2.18663e-015
lhumerus -20.7256 6.11701 78.3278
lradius 24.9362
lwrist 7.86811
lhand -7.82611 17.5763
lfingers 7.12502
lthumb 18.0761 46.7564
rfemur -4.53966 6.17771 14.8192
rtibia 28.3914
rfoot -23.0916 -16.6439
rtoes 4.48525
lfemur 4.33918 4.69382 -14.5683
ltibia 11.8353
lfoot -14.3547 20.2585
ltoes 0.0763816
34
root 5.45645 16.935 -6.31182 136.138 -87.9727 220.725
lowerback 0.911205 -0.716944 1.91886
upperback 2.98685 -1.00814 0.0480182
thorax 2.52214 -0.475488 -1.03905
lowerneck -2.55377 -0.937044 2.23813
upperneck -6.2968 -1.30437 1.77502
head -1.51764 -0.775221 0.185874
rclavicle -4.11236e-015 -3.13086e-015
rhumerus -24.5912 -7.65532 -78.6928
rradius 27.1409
rwrist 12.114
rhand -10.666 -5.28303
rfingers 7.12502
rthumb 15.3423 -34.6939
lclavicle -4.11236e-015 -3.13086e-015
lhumerus -20.8279 6.51238 78.6373
lradius 24.1413
lwrist 7.364
lhand -7.58636 17.6597
lfingers 7.12502
lthumb 18.3068 46.8183
rfemur -4.51337 6.12062 14.866
rtibia 28.3469
rfoot -23.0375 -16.5873
rtoes 4.50488
lfemur 4.40651 4.62484 -14.5213
ltibia 11.7474
lfoot -14.3718 20.3584
ltoes 0.0878995
35
root 5.44918 16.9362 -6.31866 136.123 -87.9277 220.756
lowerback 0.91387 -0.717307 1.93095
upperback 2.98538 -1.00882 0.0563709
thorax 2.51906 -0.475711 -1.0372
lowerneck -2.58849 -0.939968 2.22115
upperneck -6.34832 -1.30836 1.81474
head -1.52772 -0.778892 0.201066
rclavicle -6.14058e-015 -1.68967e-015
rhumerus -24.6073 -8.43375 -78.9651
rradius 26.4047
rwrist 12.8209
rhand -10.5722 -5.17137
rfingers 7.12502
rthumb 15.4325 -34.5753
lclavicle -6.14058e-015 -1.68967e-015
lhumerus -20.9448 6.9205 78.9277
lradius 23.3939
lwrist 6.89134
lhand -7.40868 17.7672
lfingers 7.12502
lthumb 18.4777 46.9096
rfemur -4.48688 6.06545 14.9095
rtibia 28.3024
rfoot -22.989 -16.5238
rtoes 4.51739
lfemur 4.47444 4.55676 -14.4776
ltibia 11.6614
lfoot -14.3916 20.4609
ltoes 0.100429
36
root 5.44185 16.9373 -6.32532 136.211 -87.88 220.683
lowerback 0.915737 -0.716787 1.94327
upperback 2.98456 -1.00838 0.0650921
thorax 2.51716 -0.475361 -1.03511
lowerneck -2.62177 -0.942087 2.20458
upperneck -6.39879 -1.3112 1.85422
head -1.53771 -0.781982 0.216117
rclavicle 6.52573e-015 -5.1684e-015
rhumerus -24.6358 -9.22005 -79.212
rradius 25.7098
rwrist 13.5156
rhand -10.5166 -5.07087
rfingers 7.12502
rthumb 15.4861 -34.4706
lclavicle 6.52573e-015 -5.1684e-015
lhumerus -21.0766 7.33626 79.2005
lradius 22.6974
lwrist 6.44842
lhand -7.29466 17.8929
lfingers 7.12502
lthumb 18.5874 47.0248
rfemur -4.46044 6.01645 14.9519
rtibia 28.2583
rfoot -22.9479 -16.4571
rtoes 4.52374
lfemur 4.54353 4.48915 -14.4363
ltibia 11.5767
lfoot -14.4142 20.5667
ltoes 0.114263
37
root 5.43448 16.9384 -6.33181 136.386 -87.8291 220.524
lowerback 0.916757 -0.715146 1.95639
upperback 2.98411 -1.0065 0.0743299
thorax 2.51615 -0.474269 -1.03293
lowerneck -2.65375 -0.943547 2.18833
upperneck -6.44767 -1.31309 1.8939
head -1.54743 -0.784574 0.231181
rclavicle 1.38901e-014 9.93923e-017
rhumerus -24.6787 -10.0071 -79.4349
rradius 25.062
rwrist 14.1923
rhand -10.4941 -4.98395
rfingers 7.12502
rthumb 15.5078 -34.382
lclavicle 1.38901e-014 9.93923e-017
lhumerus -21.2264 7.74252 79.46
lradius 22.0583
lwrist 6.05034
lhand -7.24571 18.0343
lfingers 7.12502
lthumb 18.6345 47.1618
rfemur -4.43454 5.97605 14.9942
rtibia 28.2148
rfoot -22.9128 -16.389
rtoes 4.53524
lfemur 4.61347 4.42266 -14.3962
ltibia 11.4931
lfoot -14.4396 20.6754
ltoes 0.131765
38
root 5.42708 16.9394 -6.33804 136.654 -87.777 220.271
lowerback 0.916704 -0.712726 1.96936
upperback 2.98387 -1.00359 0.0833486
thorax 2.516 -0.472661 -1.0309
lowerneck -2.68459 -0.944608 2.17265
upperneck -6.49441 -1.31439 1.93338
head -1.55668 -0.786838 0.246087
rclavicle 1.26073e-014 -2.08724e-015
rhumerus -24.7377 -10.7864 -79.6361
rradius 24.4641
rwrist 14.8475
rhand -10.5097 -4.90416
rfingers 7.12502
rthumb 15.4928 -34.3034
lclavicle 1.26073e-014 -2.08724e-015
lhumerus -21.3944 8.13124 79.7086
lradius 21.4795
lwrist 5.696
lhand -7.26396 18.18
lfingers 7.12502
lthumb 18.6169 47.3092
rfemur -4.40983 5.94013 15.0335
rtibia 28.1723
rfoot -22.8802 -16.3186
rtoes 4.54767
lfemur 4.68384 4.35711 -14.3598
ltibia 11.4104
lfoot -14.4673 20.7861
ltoes 0.153544
39
root 5.41964 16.9403 -6.344 136.964 -87.7233 219.977
lowerback 0.91558 -0.709853 1.98348
upperback 2.98408 -1.00014 0.0927983
thorax 2.51693 -0.470748 -1.02909
lowerneck -2.71413 -0.945254 2.15739
upperneck -6.53892 -1.31507 1.97244
head -1.56545 -0.788752 0.260793
rclavicle -5.66226e-015 1.21259e-014
rhumerus -24.8129 -11.5474 -79.8185
rradius 23.919
rwrist 15.4741
rhand -10.5616 -4.83391
rfingers 7.12502
rthumb 15.4428 -34.237
lclavicle -5.66226e-015 1.21259e-014
lhumerus -21.5778 8.50268 79.9477
lradius 20.9572
lwrist 5.37716
lhand -7.34305 18.3345
lfingers 7.12502
lthumb 18.5409 47.4709
rfemur -4.3857 5.90819 15.0717
rtibia 28.1307
rfoot -22.8499 -16.2469
rtoes 4.5627
lfemur 4.75521 4.29215 -14.3252
ltibia 11.3283
lfoot -14.4971 20.8978
ltoes 0.179953
40
root 5.4122 16.9412 -6.34973 137.323 -87.6684 219.633
lowerback 0.913971 -0.706325 1.99752
upperback 2.98426 -0.995837 0.102499
thorax 2.51812 -0.468409 -1.02697
lowerneck -2.74235 -0.945461 2.14228
upperneck -6.58109 -1.31509 2.01184
head -1.57371 -0.790286 0.275575
rclavicle -1.30235e-014 7.40473e-015
rhumerus -24.9054 -12.2807 -79.9853
rradius 23.4288
rwrist 16.0652
rhand -10.6502 -4.77056
rfingers 7.12502
rthumb 15.3574 -34.1802
lclavicle -1.30235e-014 7.40473e-015
lhumerus -21.7791 8.8419 80.1814
lradius 20.4972
lwrist 5.09856
lhand -7.48711 18.4952
lfingers 7.12502
lthumb 18.4023 47.6447
rfemur -4.36258 5.88153 15.1084
rtibia 28.0907
rfoot -22.8226 -16.1755
rtoes 4.57942
lfemur 4.82763 4.22951 -14.2926
ltibia 11.2459
lfoot -14.5276 21.0091
ltoes 0.210662
41
root 5.40473 16.942 -6.35524 137.724 -87.612 219.246
lowerback 0.91145 -0.702084 2.01161
upperback 2.98465 -0.990617 0.112555
thorax 2.52008 -0.46561 -1.02452
lowerneck -2.76912 -0.945544 2.12719
upperneck -6.62081 -1.31484 2.05125
head -1.58144 -0.791637 0.290361
rclavicle 1.01753e-014 -5.46658e-016
rhumerus -25.0143 -12.9735 -80.1408
rradius 22.9946
rwrist 16.6087
rhand -10.7762 -4.71232
rfingers 7.12502
rthumb 15.2361 -34.1313
lclavicle 1.01753e-014 -5.46658e-016
lhumerus -21.9978 9.14232 80.4126
lradius 20.1001
lwrist 4.85937
lhand -7.69166 18.661
lfingers 7.12502
lthumb 18.2055 47.8291
rfemur -4.34048 5.86077 15.1443
rtibia 28.052
rfoot -22.7979 -16.1054
rtoes 4.5975
lfemur 4.90115 4.16894 -14.2617
ltibia 11.1631
lfoot -14.5584 21.1206
ltoes 0.243714
